<mxfile host="app.diagrams.net" modified="2023-07-03T23:50:19.215Z" agent="Mozilla/5.0 (Windows NT 10.0; Win64; x64) AppleWebKit/537.36 (KHTML, like Gecko) Chrome/114.0.0.0 Safari/537.36" etag="EP-82YoaKVAQRe1Gc_i4" version="21.5.2" type="github">
  <diagram name="Page-1" id="t5c78ClteFGIrC6Oy8rG">
    <mxGraphModel dx="794" dy="430" grid="1" gridSize="10" guides="1" tooltips="1" connect="1" arrows="1" fold="1" page="1" pageScale="1" pageWidth="850" pageHeight="1100" math="0" shadow="0">
      <root>
        <mxCell id="0" />
        <mxCell id="1" parent="0" />
        <mxCell id="BAFdUwqjaFJr0z-FGz0u-1" value="" style="swimlane;startSize=0;" parent="1" vertex="1">
          <mxGeometry x="425" y="20" width="365.5" height="390" as="geometry" />
        </mxCell>
        <mxCell id="BAFdUwqjaFJr0z-FGz0u-8" value="&lt;font color=&quot;#7d7d7d&quot;&gt;MM/DD/YYYY&lt;/font&gt;" style="rounded=1;whiteSpace=wrap;html=1;align=center;" parent="BAFdUwqjaFJr0z-FGz0u-1" vertex="1">
          <mxGeometry x="112" y="161" width="101" height="20" as="geometry" />
        </mxCell>
        <mxCell id="BAFdUwqjaFJr0z-FGz0u-10" value="&lt;b&gt;INCOMES&lt;/b&gt;" style="text;html=1;strokeColor=none;fillColor=none;align=center;verticalAlign=middle;whiteSpace=wrap;rounded=0;" parent="BAFdUwqjaFJr0z-FGz0u-1" vertex="1">
          <mxGeometry x="12.5" y="85" width="340" height="30" as="geometry" />
        </mxCell>
        <mxCell id="BAFdUwqjaFJr0z-FGz0u-11" value="Bank:" style="text;html=1;strokeColor=none;fillColor=none;align=right;verticalAlign=middle;whiteSpace=wrap;rounded=0;" parent="BAFdUwqjaFJr0z-FGz0u-1" vertex="1">
          <mxGeometry x="38" y="123.5" width="60" height="30" as="geometry" />
        </mxCell>
        <mxCell id="BAFdUwqjaFJr0z-FGz0u-16" value="Date:" style="text;html=1;strokeColor=none;fillColor=none;align=right;verticalAlign=middle;whiteSpace=wrap;rounded=0;" parent="BAFdUwqjaFJr0z-FGz0u-1" vertex="1">
          <mxGeometry x="8" y="156" width="90" height="30" as="geometry" />
        </mxCell>
        <mxCell id="-61vD2QeUWn7u2ZX0hGo-3" value="&lt;font style=&quot;font-size: 10px;&quot;&gt;Serch&lt;/font&gt;" style="strokeWidth=1;html=1;shadow=0;dashed=0;shape=mxgraph.ios.iComboBox;spacingTop=2;spacingLeft=2;align=left;strokeColor=#444444;fontColor=#666666;buttonText=;fontSize=10;fillColor=#dddddd;fillColor2=#3D5565;sketch=0;whiteSpace=wrap;" parent="BAFdUwqjaFJr0z-FGz0u-1" vertex="1">
          <mxGeometry x="112" y="127.5" width="100" height="22" as="geometry" />
        </mxCell>
        <mxCell id="-61vD2QeUWn7u2ZX0hGo-12" value="" style="html=1;shadow=0;dashed=0;shape=mxgraph.bootstrap.rrect;rSize=5;strokeColor=#CED4DA;html=1;whiteSpace=wrap;fillColor=#FFFFFF;fontColor=#7D868C;align=left;spacing=15;spacingLeft=40;fontSize=14;" parent="BAFdUwqjaFJr0z-FGz0u-1" vertex="1">
          <mxGeometry x="112" y="191" width="101" height="20" as="geometry" />
        </mxCell>
        <mxCell id="-61vD2QeUWn7u2ZX0hGo-13" value="$" style="html=1;shadow=0;dashed=0;shape=mxgraph.bootstrap.leftButton;strokeColor=inherit;gradientColor=inherit;fontColor=inherit;fillColor=#E9ECEF;rSize=5;perimeter=none;whiteSpace=wrap;resizeHeight=1;fontSize=14;" parent="-61vD2QeUWn7u2ZX0hGo-12" vertex="1">
          <mxGeometry width="5.05" height="20" as="geometry" />
        </mxCell>
        <mxCell id="-61vD2QeUWn7u2ZX0hGo-14" value=".00" style="html=1;shadow=0;dashed=0;shape=mxgraph.bootstrap.rightButton;strokeColor=inherit;gradientColor=inherit;fontColor=inherit;fillColor=#E9ECEF;rSize=5;perimeter=none;whiteSpace=wrap;resizeHeight=1;fontSize=14;" parent="-61vD2QeUWn7u2ZX0hGo-12" vertex="1">
          <mxGeometry x="1" width="40" height="20" relative="1" as="geometry">
            <mxPoint x="-40" as="offset" />
          </mxGeometry>
        </mxCell>
        <mxCell id="-61vD2QeUWn7u2ZX0hGo-17" value="Amount:" style="text;html=1;strokeColor=none;fillColor=none;align=right;verticalAlign=middle;whiteSpace=wrap;rounded=0;" parent="BAFdUwqjaFJr0z-FGz0u-1" vertex="1">
          <mxGeometry x="8" y="186" width="90" height="30" as="geometry" />
        </mxCell>
        <mxCell id="-61vD2QeUWn7u2ZX0hGo-26" value="Kind of payment:" style="text;html=1;strokeColor=none;fillColor=none;align=right;verticalAlign=middle;whiteSpace=wrap;rounded=0;" parent="BAFdUwqjaFJr0z-FGz0u-1" vertex="1">
          <mxGeometry x="3" y="231" width="100" height="30" as="geometry" />
        </mxCell>
        <mxCell id="-61vD2QeUWn7u2ZX0hGo-27" value="&lt;font style=&quot;font-size: 10px;&quot;&gt;Transfer&lt;/font&gt;" style="strokeWidth=1;html=1;shadow=0;dashed=0;shape=mxgraph.ios.iComboBox;spacingTop=2;spacingLeft=2;align=left;strokeColor=#444444;fontColor=#666666;buttonText=;fontSize=10;fillColor=#dddddd;fillColor2=#3D5565;sketch=0;whiteSpace=wrap;" parent="BAFdUwqjaFJr0z-FGz0u-1" vertex="1">
          <mxGeometry x="112" y="235" width="100" height="22" as="geometry" />
        </mxCell>
        <mxCell id="-61vD2QeUWn7u2ZX0hGo-28" value="Currency:" style="text;html=1;strokeColor=none;fillColor=none;align=right;verticalAlign=middle;whiteSpace=wrap;rounded=0;" parent="BAFdUwqjaFJr0z-FGz0u-1" vertex="1">
          <mxGeometry x="218" y="186" width="59" height="30" as="geometry" />
        </mxCell>
        <mxCell id="-61vD2QeUWn7u2ZX0hGo-43" value="&lt;font style=&quot;font-size: 10px;&quot;&gt;USD&lt;/font&gt;" style="strokeWidth=1;html=1;shadow=0;dashed=0;shape=mxgraph.ios.iComboBox;spacingTop=2;spacingLeft=2;align=left;strokeColor=#444444;fontColor=#666666;buttonText=;fontSize=10;fillColor=#dddddd;fillColor2=#3D5565;sketch=0;whiteSpace=wrap;" parent="BAFdUwqjaFJr0z-FGz0u-1" vertex="1">
          <mxGeometry x="288" y="189" width="65" height="22" as="geometry" />
        </mxCell>
        <mxCell id="-61vD2QeUWn7u2ZX0hGo-89" value="&lt;font style=&quot;font-size: 15px;&quot;&gt;*&lt;/font&gt;" style="text;html=1;strokeColor=none;fillColor=none;align=center;verticalAlign=middle;whiteSpace=wrap;rounded=0;fontColor=#d00b0b;" parent="BAFdUwqjaFJr0z-FGz0u-1" vertex="1">
          <mxGeometry x="203" y="186" width="30" height="20" as="geometry" />
        </mxCell>
        <mxCell id="-61vD2QeUWn7u2ZX0hGo-90" value="&lt;font style=&quot;font-size: 15px;&quot;&gt;*&lt;/font&gt;" style="text;html=1;strokeColor=none;fillColor=none;align=center;verticalAlign=middle;whiteSpace=wrap;rounded=0;fontColor=#d00b0b;" parent="BAFdUwqjaFJr0z-FGz0u-1" vertex="1">
          <mxGeometry x="203" y="156" width="30" height="20" as="geometry" />
        </mxCell>
        <mxCell id="-61vD2QeUWn7u2ZX0hGo-91" value="&lt;font style=&quot;font-size: 15px;&quot;&gt;*&lt;/font&gt;" style="text;html=1;strokeColor=none;fillColor=none;align=center;verticalAlign=middle;whiteSpace=wrap;rounded=0;fontColor=#d00b0b;" parent="BAFdUwqjaFJr0z-FGz0u-1" vertex="1">
          <mxGeometry x="203" y="121" width="30" height="20" as="geometry" />
        </mxCell>
        <mxCell id="-61vD2QeUWn7u2ZX0hGo-92" value="&lt;font style=&quot;font-size: 15px;&quot;&gt;*&lt;/font&gt;" style="text;html=1;strokeColor=none;fillColor=none;align=center;verticalAlign=middle;whiteSpace=wrap;rounded=0;fontColor=#d00b0b;" parent="BAFdUwqjaFJr0z-FGz0u-1" vertex="1">
          <mxGeometry x="335" y="95" width="30" height="20" as="geometry" />
        </mxCell>
        <mxCell id="-61vD2QeUWn7u2ZX0hGo-93" value="&lt;font style=&quot;font-size: 15px;&quot;&gt;*&lt;/font&gt;" style="text;html=1;strokeColor=none;fillColor=none;align=center;verticalAlign=middle;whiteSpace=wrap;rounded=0;fontColor=#d00b0b;" parent="BAFdUwqjaFJr0z-FGz0u-1" vertex="1">
          <mxGeometry x="203" y="226" width="30" height="20" as="geometry" />
        </mxCell>
        <mxCell id="-61vD2QeUWn7u2ZX0hGo-95" value="" style="rounded=1;whiteSpace=wrap;html=1;align=center;" parent="BAFdUwqjaFJr0z-FGz0u-1" vertex="1">
          <mxGeometry x="112" y="271" width="91" height="20" as="geometry" />
        </mxCell>
        <mxCell id="-61vD2QeUWn7u2ZX0hGo-96" value="" style="rounded=1;whiteSpace=wrap;html=1;align=center;" parent="BAFdUwqjaFJr0z-FGz0u-1" vertex="1">
          <mxGeometry x="112" y="301" width="91" height="20" as="geometry" />
        </mxCell>
        <mxCell id="-61vD2QeUWn7u2ZX0hGo-97" value="Customer:" style="text;html=1;strokeColor=none;fillColor=none;align=right;verticalAlign=middle;whiteSpace=wrap;rounded=0;" parent="BAFdUwqjaFJr0z-FGz0u-1" vertex="1">
          <mxGeometry y="296" width="100" height="30" as="geometry" />
        </mxCell>
        <mxCell id="-61vD2QeUWn7u2ZX0hGo-98" value="" style="rounded=1;whiteSpace=wrap;html=1;align=center;" parent="BAFdUwqjaFJr0z-FGz0u-1" vertex="1">
          <mxGeometry x="112" y="331" width="131" height="30" as="geometry" />
        </mxCell>
        <mxCell id="-61vD2QeUWn7u2ZX0hGo-99" value="Comments:" style="text;html=1;strokeColor=none;fillColor=none;align=right;verticalAlign=middle;whiteSpace=wrap;rounded=0;" parent="BAFdUwqjaFJr0z-FGz0u-1" vertex="1">
          <mxGeometry y="331" width="100" height="30" as="geometry" />
        </mxCell>
        <mxCell id="-61vD2QeUWn7u2ZX0hGo-100" value="Submit" style="rounded=1;html=1;shadow=0;dashed=0;whiteSpace=wrap;fontSize=10;fillColor=#666666;align=center;strokeColor=#4D4D4D;fontColor=#ffffff;" parent="BAFdUwqjaFJr0z-FGz0u-1" vertex="1">
          <mxGeometry x="272.5" y="331" width="80" height="30" as="geometry" />
        </mxCell>
        <mxCell id="-61vD2QeUWn7u2ZX0hGo-94" value="Reference:" style="text;html=1;strokeColor=none;fillColor=none;align=right;verticalAlign=middle;whiteSpace=wrap;rounded=0;" parent="BAFdUwqjaFJr0z-FGz0u-1" vertex="1">
          <mxGeometry x="-2" y="266" width="100" height="30" as="geometry" />
        </mxCell>
        <mxCell id="-61vD2QeUWn7u2ZX0hGo-209" value="&lt;font style=&quot;font-size: 15px;&quot;&gt;*&lt;/font&gt;" style="text;html=1;strokeColor=none;fillColor=none;align=center;verticalAlign=middle;whiteSpace=wrap;rounded=0;fontColor=#d00b0b;" parent="BAFdUwqjaFJr0z-FGz0u-1" vertex="1">
          <mxGeometry x="203" y="301" width="30" height="20" as="geometry" />
        </mxCell>
        <mxCell id="-61vD2QeUWn7u2ZX0hGo-210" value="Logo" style="html=1;shadow=0;dashed=0;fillColor=#343A40;strokeColor=none;fontSize=16;fontColor=#ffffff;align=left;spacing=15;" parent="BAFdUwqjaFJr0z-FGz0u-1" vertex="1">
          <mxGeometry x="-0.5" width="366" height="60" as="geometry" />
        </mxCell>
        <mxCell id="-61vD2QeUWn7u2ZX0hGo-211" value="Home" style="fillColor=none;strokeColor=none;fontSize=14;fontColor=#ffffff;align=center;" parent="-61vD2QeUWn7u2ZX0hGo-210" vertex="1">
          <mxGeometry width="70" height="40" relative="1" as="geometry">
            <mxPoint x="70" y="10" as="offset" />
          </mxGeometry>
        </mxCell>
        <mxCell id="-61vD2QeUWn7u2ZX0hGo-212" value="Incomes" style="fillColor=none;strokeColor=none;fontSize=14;fontColor=#9A9DA0;align=center;" parent="-61vD2QeUWn7u2ZX0hGo-210" vertex="1">
          <mxGeometry width="70" height="40" relative="1" as="geometry">
            <mxPoint x="140" y="10" as="offset" />
          </mxGeometry>
        </mxCell>
        <mxCell id="-61vD2QeUWn7u2ZX0hGo-213" value="Status" style="fillColor=none;strokeColor=none;fontSize=14;fontColor=#9A9DA0;align=center;spacingRight=0;" parent="-61vD2QeUWn7u2ZX0hGo-210" vertex="1">
          <mxGeometry width="80" height="40" relative="1" as="geometry">
            <mxPoint x="210" y="10" as="offset" />
          </mxGeometry>
        </mxCell>
        <mxCell id="-61vD2QeUWn7u2ZX0hGo-214" value="Policy" style="fillColor=none;strokeColor=none;fontSize=14;fontColor=#9A9DA0;align=center;" parent="-61vD2QeUWn7u2ZX0hGo-210" vertex="1">
          <mxGeometry width="80" height="40" relative="1" as="geometry">
            <mxPoint x="285" y="10" as="offset" />
          </mxGeometry>
        </mxCell>
        <mxCell id="BAFdUwqjaFJr0z-FGz0u-18" value="" style="swimlane;startSize=0;" parent="1" vertex="1">
          <mxGeometry x="51" y="20" width="349" height="340" as="geometry" />
        </mxCell>
        <mxCell id="BAFdUwqjaFJr0z-FGz0u-19" value="Miapodo" style="rounded=1;whiteSpace=wrap;html=1;" parent="BAFdUwqjaFJr0z-FGz0u-18" vertex="1">
          <mxGeometry x="160" y="70" width="120" height="30" as="geometry" />
        </mxCell>
        <mxCell id="BAFdUwqjaFJr0z-FGz0u-20" value="ejercicios aleatorios" style="rounded=1;whiteSpace=wrap;html=1;" parent="BAFdUwqjaFJr0z-FGz0u-18" vertex="1">
          <mxGeometry x="160" y="115" width="120" height="30" as="geometry" />
        </mxCell>
        <mxCell id="BAFdUwqjaFJr0z-FGz0u-21" value="respuesta con asteriscos" style="rounded=1;whiteSpace=wrap;html=1;" parent="BAFdUwqjaFJr0z-FGz0u-18" vertex="1">
          <mxGeometry x="160" y="160" width="120" height="30" as="geometry" />
        </mxCell>
        <mxCell id="BAFdUwqjaFJr0z-FGz0u-22" value="&lt;br&gt;Username:" style="text;html=1;strokeColor=none;fillColor=none;align=right;verticalAlign=middle;whiteSpace=wrap;rounded=0;" parent="BAFdUwqjaFJr0z-FGz0u-18" vertex="1">
          <mxGeometry x="40" y="70" width="110" height="30" as="geometry" />
        </mxCell>
        <mxCell id="BAFdUwqjaFJr0z-FGz0u-23" value="Resuelve la siguiente operacion para ingresar:" style="text;html=1;strokeColor=none;fillColor=none;align=center;verticalAlign=middle;whiteSpace=wrap;rounded=0;" parent="BAFdUwqjaFJr0z-FGz0u-18" vertex="1">
          <mxGeometry y="110" width="160" height="30" as="geometry" />
        </mxCell>
        <mxCell id="BAFdUwqjaFJr0z-FGz0u-24" value="Respuesta:" style="text;html=1;strokeColor=none;fillColor=none;align=right;verticalAlign=middle;whiteSpace=wrap;rounded=0;" parent="BAFdUwqjaFJr0z-FGz0u-18" vertex="1">
          <mxGeometry x="40" y="160" width="110" height="30" as="geometry" />
        </mxCell>
        <mxCell id="-61vD2QeUWn7u2ZX0hGo-25" value="Enter" style="rounded=1;html=1;shadow=0;dashed=0;whiteSpace=wrap;fontSize=10;fillColor=#666666;align=center;strokeColor=#999999;fontColor=#ffffff;" parent="BAFdUwqjaFJr0z-FGz0u-18" vertex="1">
          <mxGeometry x="239" y="250" width="80" height="30" as="geometry" />
        </mxCell>
        <mxCell id="-61vD2QeUWn7u2ZX0hGo-71" value="LOG IN" style="text;html=1;strokeColor=none;fillColor=none;align=center;verticalAlign=middle;whiteSpace=wrap;rounded=0;" parent="BAFdUwqjaFJr0z-FGz0u-18" vertex="1">
          <mxGeometry x="10" y="10" width="330" height="30" as="geometry" />
        </mxCell>
        <mxCell id="-61vD2QeUWn7u2ZX0hGo-46" value="" style="swimlane;startSize=0;" parent="1" vertex="1">
          <mxGeometry x="425" y="430" width="365" height="390" as="geometry" />
        </mxCell>
        <mxCell id="-61vD2QeUWn7u2ZX0hGo-220" value="&lt;b&gt;HOME&lt;/b&gt;" style="text;html=1;strokeColor=none;fillColor=none;align=center;verticalAlign=middle;whiteSpace=wrap;rounded=0;" parent="-61vD2QeUWn7u2ZX0hGo-46" vertex="1">
          <mxGeometry x="13" y="70" width="340" height="30" as="geometry" />
        </mxCell>
        <mxCell id="-61vD2QeUWn7u2ZX0hGo-221" value="Banking information" style="shape=table;startSize=30;container=1;collapsible=0;childLayout=tableLayout;strokeColor=default;fontSize=16;fontStyle=1" parent="-61vD2QeUWn7u2ZX0hGo-46" vertex="1">
          <mxGeometry x="10" y="120" width="340" height="230" as="geometry" />
        </mxCell>
        <mxCell id="-61vD2QeUWn7u2ZX0hGo-222" value="" style="shape=tableRow;horizontal=0;startSize=0;swimlaneHead=0;swimlaneBody=0;strokeColor=inherit;top=0;left=0;bottom=0;right=0;collapsible=0;dropTarget=0;fillColor=none;points=[[0,0.5],[1,0.5]];portConstraint=eastwest;fontSize=16;" parent="-61vD2QeUWn7u2ZX0hGo-221" vertex="1">
          <mxGeometry y="30" width="340" height="40" as="geometry" />
        </mxCell>
        <mxCell id="-61vD2QeUWn7u2ZX0hGo-223" value="&lt;b&gt;&lt;font style=&quot;font-size: 10px;&quot;&gt;Bank&lt;/font&gt;&lt;/b&gt;" style="shape=partialRectangle;html=1;whiteSpace=wrap;connectable=0;strokeColor=inherit;overflow=hidden;fillColor=none;top=0;left=0;bottom=0;right=0;pointerEvents=1;fontSize=16;" parent="-61vD2QeUWn7u2ZX0hGo-222" vertex="1">
          <mxGeometry width="75" height="40" as="geometry">
            <mxRectangle width="75" height="40" as="alternateBounds" />
          </mxGeometry>
        </mxCell>
        <mxCell id="-61vD2QeUWn7u2ZX0hGo-224" value="&lt;b&gt;&lt;font style=&quot;font-size: 10px;&quot;&gt;USD &lt;br&gt;Account&lt;/font&gt;&lt;/b&gt;" style="shape=partialRectangle;html=1;whiteSpace=wrap;connectable=0;strokeColor=inherit;overflow=hidden;fillColor=none;top=0;left=0;bottom=0;right=0;pointerEvents=1;fontSize=16;" parent="-61vD2QeUWn7u2ZX0hGo-222" vertex="1">
          <mxGeometry x="75" width="60" height="40" as="geometry">
            <mxRectangle width="60" height="40" as="alternateBounds" />
          </mxGeometry>
        </mxCell>
        <mxCell id="-61vD2QeUWn7u2ZX0hGo-225" value="&lt;b&gt;&lt;font style=&quot;font-size: 10px;&quot;&gt;USD Subaccount&lt;/font&gt;&lt;/b&gt;" style="shape=partialRectangle;html=1;whiteSpace=wrap;connectable=0;strokeColor=inherit;overflow=hidden;fillColor=none;top=0;left=0;bottom=0;right=0;pointerEvents=1;fontSize=16;" parent="-61vD2QeUWn7u2ZX0hGo-222" vertex="1">
          <mxGeometry x="135" width="68" height="40" as="geometry">
            <mxRectangle width="68" height="40" as="alternateBounds" />
          </mxGeometry>
        </mxCell>
        <mxCell id="-61vD2QeUWn7u2ZX0hGo-248" value="&lt;font style=&quot;font-size: 10px;&quot;&gt;&lt;b&gt;MXN &lt;br&gt;Account&lt;/b&gt;&lt;/font&gt;" style="shape=partialRectangle;html=1;whiteSpace=wrap;connectable=0;strokeColor=inherit;overflow=hidden;fillColor=none;top=0;left=0;bottom=0;right=0;pointerEvents=1;fontSize=16;" parent="-61vD2QeUWn7u2ZX0hGo-222" vertex="1">
          <mxGeometry x="203" width="69" height="40" as="geometry">
            <mxRectangle width="69" height="40" as="alternateBounds" />
          </mxGeometry>
        </mxCell>
        <mxCell id="-61vD2QeUWn7u2ZX0hGo-253" value="&lt;b&gt;&lt;font style=&quot;font-size: 10px;&quot;&gt;MXN &lt;br&gt;Account&lt;/font&gt;&lt;/b&gt;" style="shape=partialRectangle;html=1;whiteSpace=wrap;connectable=0;strokeColor=inherit;overflow=hidden;fillColor=none;top=0;left=0;bottom=0;right=0;pointerEvents=1;fontSize=16;" parent="-61vD2QeUWn7u2ZX0hGo-222" vertex="1">
          <mxGeometry x="272" width="68" height="40" as="geometry">
            <mxRectangle width="68" height="40" as="alternateBounds" />
          </mxGeometry>
        </mxCell>
        <mxCell id="-61vD2QeUWn7u2ZX0hGo-226" value="" style="shape=tableRow;horizontal=0;startSize=0;swimlaneHead=0;swimlaneBody=0;strokeColor=inherit;top=0;left=0;bottom=0;right=0;collapsible=0;dropTarget=0;fillColor=none;points=[[0,0.5],[1,0.5]];portConstraint=eastwest;fontSize=16;" parent="-61vD2QeUWn7u2ZX0hGo-221" vertex="1">
          <mxGeometry y="70" width="340" height="40" as="geometry" />
        </mxCell>
        <mxCell id="-61vD2QeUWn7u2ZX0hGo-227" value="&lt;font style=&quot;font-size: 10px;&quot;&gt;BBVA&lt;/font&gt;" style="shape=partialRectangle;html=1;whiteSpace=wrap;connectable=0;strokeColor=inherit;overflow=hidden;fillColor=none;top=0;left=0;bottom=0;right=0;pointerEvents=1;fontSize=16;" parent="-61vD2QeUWn7u2ZX0hGo-226" vertex="1">
          <mxGeometry width="75" height="40" as="geometry">
            <mxRectangle width="75" height="40" as="alternateBounds" />
          </mxGeometry>
        </mxCell>
        <mxCell id="-61vD2QeUWn7u2ZX0hGo-228" value="&lt;font style=&quot;font-size: 10px;&quot;&gt;$4,000.00&lt;/font&gt;" style="shape=partialRectangle;html=1;whiteSpace=wrap;connectable=0;strokeColor=inherit;overflow=hidden;fillColor=none;top=0;left=0;bottom=0;right=0;pointerEvents=1;fontSize=16;" parent="-61vD2QeUWn7u2ZX0hGo-226" vertex="1">
          <mxGeometry x="75" width="60" height="40" as="geometry">
            <mxRectangle width="60" height="40" as="alternateBounds" />
          </mxGeometry>
        </mxCell>
        <mxCell id="-61vD2QeUWn7u2ZX0hGo-229" value="" style="shape=partialRectangle;html=1;whiteSpace=wrap;connectable=0;strokeColor=inherit;overflow=hidden;fillColor=none;top=0;left=0;bottom=0;right=0;pointerEvents=1;fontSize=16;" parent="-61vD2QeUWn7u2ZX0hGo-226" vertex="1">
          <mxGeometry x="135" width="68" height="40" as="geometry">
            <mxRectangle width="68" height="40" as="alternateBounds" />
          </mxGeometry>
        </mxCell>
        <mxCell id="-61vD2QeUWn7u2ZX0hGo-249" style="shape=partialRectangle;html=1;whiteSpace=wrap;connectable=0;strokeColor=inherit;overflow=hidden;fillColor=none;top=0;left=0;bottom=0;right=0;pointerEvents=1;fontSize=16;" parent="-61vD2QeUWn7u2ZX0hGo-226" vertex="1">
          <mxGeometry x="203" width="69" height="40" as="geometry">
            <mxRectangle width="69" height="40" as="alternateBounds" />
          </mxGeometry>
        </mxCell>
        <mxCell id="-61vD2QeUWn7u2ZX0hGo-254" style="shape=partialRectangle;html=1;whiteSpace=wrap;connectable=0;strokeColor=inherit;overflow=hidden;fillColor=none;top=0;left=0;bottom=0;right=0;pointerEvents=1;fontSize=16;" parent="-61vD2QeUWn7u2ZX0hGo-226" vertex="1">
          <mxGeometry x="272" width="68" height="40" as="geometry">
            <mxRectangle width="68" height="40" as="alternateBounds" />
          </mxGeometry>
        </mxCell>
        <mxCell id="-61vD2QeUWn7u2ZX0hGo-230" value="" style="shape=tableRow;horizontal=0;startSize=0;swimlaneHead=0;swimlaneBody=0;strokeColor=inherit;top=0;left=0;bottom=0;right=0;collapsible=0;dropTarget=0;fillColor=none;points=[[0,0.5],[1,0.5]];portConstraint=eastwest;fontSize=16;" parent="-61vD2QeUWn7u2ZX0hGo-221" vertex="1">
          <mxGeometry y="110" width="340" height="40" as="geometry" />
        </mxCell>
        <mxCell id="-61vD2QeUWn7u2ZX0hGo-231" value="&lt;font style=&quot;font-size: 10px;&quot;&gt;BANAMEX&lt;/font&gt;" style="shape=partialRectangle;html=1;whiteSpace=wrap;connectable=0;strokeColor=inherit;overflow=hidden;fillColor=none;top=0;left=0;bottom=0;right=0;pointerEvents=1;fontSize=16;" parent="-61vD2QeUWn7u2ZX0hGo-230" vertex="1">
          <mxGeometry width="75" height="40" as="geometry">
            <mxRectangle width="75" height="40" as="alternateBounds" />
          </mxGeometry>
        </mxCell>
        <mxCell id="-61vD2QeUWn7u2ZX0hGo-232" value="" style="shape=partialRectangle;html=1;whiteSpace=wrap;connectable=0;strokeColor=inherit;overflow=hidden;fillColor=none;top=0;left=0;bottom=0;right=0;pointerEvents=1;fontSize=16;" parent="-61vD2QeUWn7u2ZX0hGo-230" vertex="1">
          <mxGeometry x="75" width="60" height="40" as="geometry">
            <mxRectangle width="60" height="40" as="alternateBounds" />
          </mxGeometry>
        </mxCell>
        <mxCell id="-61vD2QeUWn7u2ZX0hGo-233" value="" style="shape=partialRectangle;html=1;whiteSpace=wrap;connectable=0;strokeColor=inherit;overflow=hidden;fillColor=none;top=0;left=0;bottom=0;right=0;pointerEvents=1;fontSize=16;" parent="-61vD2QeUWn7u2ZX0hGo-230" vertex="1">
          <mxGeometry x="135" width="68" height="40" as="geometry">
            <mxRectangle width="68" height="40" as="alternateBounds" />
          </mxGeometry>
        </mxCell>
        <mxCell id="-61vD2QeUWn7u2ZX0hGo-250" style="shape=partialRectangle;html=1;whiteSpace=wrap;connectable=0;strokeColor=inherit;overflow=hidden;fillColor=none;top=0;left=0;bottom=0;right=0;pointerEvents=1;fontSize=16;" parent="-61vD2QeUWn7u2ZX0hGo-230" vertex="1">
          <mxGeometry x="203" width="69" height="40" as="geometry">
            <mxRectangle width="69" height="40" as="alternateBounds" />
          </mxGeometry>
        </mxCell>
        <mxCell id="-61vD2QeUWn7u2ZX0hGo-255" style="shape=partialRectangle;html=1;whiteSpace=wrap;connectable=0;strokeColor=inherit;overflow=hidden;fillColor=none;top=0;left=0;bottom=0;right=0;pointerEvents=1;fontSize=16;" parent="-61vD2QeUWn7u2ZX0hGo-230" vertex="1">
          <mxGeometry x="272" width="68" height="40" as="geometry">
            <mxRectangle width="68" height="40" as="alternateBounds" />
          </mxGeometry>
        </mxCell>
        <mxCell id="-61vD2QeUWn7u2ZX0hGo-244" style="shape=tableRow;horizontal=0;startSize=0;swimlaneHead=0;swimlaneBody=0;strokeColor=inherit;top=0;left=0;bottom=0;right=0;collapsible=0;dropTarget=0;fillColor=none;points=[[0,0.5],[1,0.5]];portConstraint=eastwest;fontSize=16;" parent="-61vD2QeUWn7u2ZX0hGo-221" vertex="1">
          <mxGeometry y="150" width="340" height="40" as="geometry" />
        </mxCell>
        <mxCell id="-61vD2QeUWn7u2ZX0hGo-245" value="&lt;font style=&quot;font-size: 10px;&quot;&gt;SANTANDER&lt;/font&gt;" style="shape=partialRectangle;html=1;whiteSpace=wrap;connectable=0;strokeColor=inherit;overflow=hidden;fillColor=none;top=0;left=0;bottom=0;right=0;pointerEvents=1;fontSize=16;" parent="-61vD2QeUWn7u2ZX0hGo-244" vertex="1">
          <mxGeometry width="75" height="40" as="geometry">
            <mxRectangle width="75" height="40" as="alternateBounds" />
          </mxGeometry>
        </mxCell>
        <mxCell id="-61vD2QeUWn7u2ZX0hGo-246" style="shape=partialRectangle;html=1;whiteSpace=wrap;connectable=0;strokeColor=inherit;overflow=hidden;fillColor=none;top=0;left=0;bottom=0;right=0;pointerEvents=1;fontSize=16;" parent="-61vD2QeUWn7u2ZX0hGo-244" vertex="1">
          <mxGeometry x="75" width="60" height="40" as="geometry">
            <mxRectangle width="60" height="40" as="alternateBounds" />
          </mxGeometry>
        </mxCell>
        <mxCell id="-61vD2QeUWn7u2ZX0hGo-247" style="shape=partialRectangle;html=1;whiteSpace=wrap;connectable=0;strokeColor=inherit;overflow=hidden;fillColor=none;top=0;left=0;bottom=0;right=0;pointerEvents=1;fontSize=16;" parent="-61vD2QeUWn7u2ZX0hGo-244" vertex="1">
          <mxGeometry x="135" width="68" height="40" as="geometry">
            <mxRectangle width="68" height="40" as="alternateBounds" />
          </mxGeometry>
        </mxCell>
        <mxCell id="-61vD2QeUWn7u2ZX0hGo-251" style="shape=partialRectangle;html=1;whiteSpace=wrap;connectable=0;strokeColor=inherit;overflow=hidden;fillColor=none;top=0;left=0;bottom=0;right=0;pointerEvents=1;fontSize=16;" parent="-61vD2QeUWn7u2ZX0hGo-244" vertex="1">
          <mxGeometry x="203" width="69" height="40" as="geometry">
            <mxRectangle width="69" height="40" as="alternateBounds" />
          </mxGeometry>
        </mxCell>
        <mxCell id="-61vD2QeUWn7u2ZX0hGo-256" style="shape=partialRectangle;html=1;whiteSpace=wrap;connectable=0;strokeColor=inherit;overflow=hidden;fillColor=none;top=0;left=0;bottom=0;right=0;pointerEvents=1;fontSize=16;" parent="-61vD2QeUWn7u2ZX0hGo-244" vertex="1">
          <mxGeometry x="272" width="68" height="40" as="geometry">
            <mxRectangle width="68" height="40" as="alternateBounds" />
          </mxGeometry>
        </mxCell>
        <mxCell id="-61vD2QeUWn7u2ZX0hGo-240" style="shape=tableRow;horizontal=0;startSize=0;swimlaneHead=0;swimlaneBody=0;strokeColor=inherit;top=0;left=0;bottom=0;right=0;collapsible=0;dropTarget=0;fillColor=none;points=[[0,0.5],[1,0.5]];portConstraint=eastwest;fontSize=16;" parent="-61vD2QeUWn7u2ZX0hGo-221" vertex="1">
          <mxGeometry y="190" width="340" height="40" as="geometry" />
        </mxCell>
        <mxCell id="-61vD2QeUWn7u2ZX0hGo-241" value="&lt;font style=&quot;font-size: 10px;&quot;&gt;HSBC&lt;/font&gt;" style="shape=partialRectangle;html=1;whiteSpace=wrap;connectable=0;strokeColor=inherit;overflow=hidden;fillColor=none;top=0;left=0;bottom=0;right=0;pointerEvents=1;fontSize=16;" parent="-61vD2QeUWn7u2ZX0hGo-240" vertex="1">
          <mxGeometry width="75" height="40" as="geometry">
            <mxRectangle width="75" height="40" as="alternateBounds" />
          </mxGeometry>
        </mxCell>
        <mxCell id="-61vD2QeUWn7u2ZX0hGo-242" style="shape=partialRectangle;html=1;whiteSpace=wrap;connectable=0;strokeColor=inherit;overflow=hidden;fillColor=none;top=0;left=0;bottom=0;right=0;pointerEvents=1;fontSize=16;" parent="-61vD2QeUWn7u2ZX0hGo-240" vertex="1">
          <mxGeometry x="75" width="60" height="40" as="geometry">
            <mxRectangle width="60" height="40" as="alternateBounds" />
          </mxGeometry>
        </mxCell>
        <mxCell id="-61vD2QeUWn7u2ZX0hGo-243" style="shape=partialRectangle;html=1;whiteSpace=wrap;connectable=0;strokeColor=inherit;overflow=hidden;fillColor=none;top=0;left=0;bottom=0;right=0;pointerEvents=1;fontSize=16;" parent="-61vD2QeUWn7u2ZX0hGo-240" vertex="1">
          <mxGeometry x="135" width="68" height="40" as="geometry">
            <mxRectangle width="68" height="40" as="alternateBounds" />
          </mxGeometry>
        </mxCell>
        <mxCell id="-61vD2QeUWn7u2ZX0hGo-252" style="shape=partialRectangle;html=1;whiteSpace=wrap;connectable=0;strokeColor=inherit;overflow=hidden;fillColor=none;top=0;left=0;bottom=0;right=0;pointerEvents=1;fontSize=16;" parent="-61vD2QeUWn7u2ZX0hGo-240" vertex="1">
          <mxGeometry x="203" width="69" height="40" as="geometry">
            <mxRectangle width="69" height="40" as="alternateBounds" />
          </mxGeometry>
        </mxCell>
        <mxCell id="-61vD2QeUWn7u2ZX0hGo-257" style="shape=partialRectangle;html=1;whiteSpace=wrap;connectable=0;strokeColor=inherit;overflow=hidden;fillColor=none;top=0;left=0;bottom=0;right=0;pointerEvents=1;fontSize=16;" parent="-61vD2QeUWn7u2ZX0hGo-240" vertex="1">
          <mxGeometry x="272" width="68" height="40" as="geometry">
            <mxRectangle width="68" height="40" as="alternateBounds" />
          </mxGeometry>
        </mxCell>
        <mxCell id="-61vD2QeUWn7u2ZX0hGo-72" value="" style="swimlane;startSize=0;" parent="1" vertex="1">
          <mxGeometry x="41" y="430" width="365" height="390" as="geometry" />
        </mxCell>
        <mxCell id="-61vD2QeUWn7u2ZX0hGo-73" value="&lt;font color=&quot;#7d7d7d&quot;&gt;MM/DD/YYYY&lt;/font&gt;" style="rounded=1;whiteSpace=wrap;html=1;align=center;" parent="-61vD2QeUWn7u2ZX0hGo-72" vertex="1">
          <mxGeometry x="109" y="147" width="101" height="20" as="geometry" />
        </mxCell>
        <mxCell id="-61vD2QeUWn7u2ZX0hGo-74" value="&lt;b&gt;STATUS&lt;/b&gt;" style="text;html=1;strokeColor=none;fillColor=none;align=center;verticalAlign=middle;whiteSpace=wrap;rounded=0;" parent="-61vD2QeUWn7u2ZX0hGo-72" vertex="1">
          <mxGeometry x="10" y="70" width="340" height="30" as="geometry" />
        </mxCell>
        <mxCell id="-61vD2QeUWn7u2ZX0hGo-75" value="Bank:" style="text;html=1;strokeColor=none;fillColor=none;align=right;verticalAlign=middle;whiteSpace=wrap;rounded=0;" parent="-61vD2QeUWn7u2ZX0hGo-72" vertex="1">
          <mxGeometry x="40" y="107" width="60" height="30" as="geometry" />
        </mxCell>
        <mxCell id="-61vD2QeUWn7u2ZX0hGo-76" value="Date:" style="text;html=1;strokeColor=none;fillColor=none;align=right;verticalAlign=middle;whiteSpace=wrap;rounded=0;" parent="-61vD2QeUWn7u2ZX0hGo-72" vertex="1">
          <mxGeometry x="10" y="142" width="90" height="30" as="geometry" />
        </mxCell>
        <mxCell id="-61vD2QeUWn7u2ZX0hGo-78" value="ALL" style="strokeWidth=1;html=1;shadow=0;dashed=0;shape=mxgraph.ios.iComboBox;spacingTop=2;spacingLeft=2;align=left;strokeColor=#444444;fontColor=#666666;buttonText=;fontSize=10;fillColor=#dddddd;fillColor2=#3D5565;sketch=0;whiteSpace=wrap;" parent="-61vD2QeUWn7u2ZX0hGo-72" vertex="1">
          <mxGeometry x="109" y="113.5" width="100" height="22" as="geometry" />
        </mxCell>
        <mxCell id="-61vD2QeUWn7u2ZX0hGo-79" value="" style="html=1;shadow=0;dashed=0;shape=mxgraph.bootstrap.rrect;rSize=5;strokeColor=#CED4DA;html=1;whiteSpace=wrap;fillColor=#FFFFFF;fontColor=#7D868C;align=left;spacing=15;spacingLeft=40;fontSize=14;" parent="-61vD2QeUWn7u2ZX0hGo-72" vertex="1">
          <mxGeometry x="109" y="177" width="91" height="20" as="geometry" />
        </mxCell>
        <mxCell id="-61vD2QeUWn7u2ZX0hGo-80" value="$" style="html=1;shadow=0;dashed=0;shape=mxgraph.bootstrap.leftButton;strokeColor=inherit;gradientColor=inherit;fontColor=inherit;fillColor=#E9ECEF;rSize=5;perimeter=none;whiteSpace=wrap;resizeHeight=1;fontSize=14;" parent="-61vD2QeUWn7u2ZX0hGo-79" vertex="1">
          <mxGeometry width="4.55" height="20" as="geometry" />
        </mxCell>
        <mxCell id="-61vD2QeUWn7u2ZX0hGo-81" value=".00" style="html=1;shadow=0;dashed=0;shape=mxgraph.bootstrap.rightButton;strokeColor=inherit;gradientColor=inherit;fontColor=inherit;fillColor=#E9ECEF;rSize=5;perimeter=none;whiteSpace=wrap;resizeHeight=1;fontSize=14;" parent="-61vD2QeUWn7u2ZX0hGo-79" vertex="1">
          <mxGeometry x="1" width="40" height="20" relative="1" as="geometry">
            <mxPoint x="-40" as="offset" />
          </mxGeometry>
        </mxCell>
        <mxCell id="-61vD2QeUWn7u2ZX0hGo-82" value="Amount:" style="text;html=1;strokeColor=none;fillColor=none;align=right;verticalAlign=middle;whiteSpace=wrap;rounded=0;" parent="-61vD2QeUWn7u2ZX0hGo-72" vertex="1">
          <mxGeometry x="10" y="213" width="90" height="30" as="geometry" />
        </mxCell>
        <mxCell id="-61vD2QeUWn7u2ZX0hGo-83" value="Kind of payment:" style="text;html=1;strokeColor=none;fillColor=none;align=right;verticalAlign=middle;whiteSpace=wrap;rounded=0;" parent="-61vD2QeUWn7u2ZX0hGo-72" vertex="1">
          <mxGeometry y="172" width="100" height="30" as="geometry" />
        </mxCell>
        <mxCell id="-61vD2QeUWn7u2ZX0hGo-84" value="ALL" style="strokeWidth=1;html=1;shadow=0;dashed=0;shape=mxgraph.ios.iComboBox;spacingTop=2;spacingLeft=2;align=left;strokeColor=#444444;fontColor=#666666;buttonText=;fontSize=10;fillColor=#dddddd;fillColor2=#3D5565;sketch=0;whiteSpace=wrap;" parent="-61vD2QeUWn7u2ZX0hGo-72" vertex="1">
          <mxGeometry x="109" y="217" width="100" height="22" as="geometry" />
        </mxCell>
        <mxCell id="-61vD2QeUWn7u2ZX0hGo-85" value="Currency:" style="text;html=1;strokeColor=none;fillColor=none;align=right;verticalAlign=middle;whiteSpace=wrap;rounded=0;" parent="-61vD2QeUWn7u2ZX0hGo-72" vertex="1">
          <mxGeometry x="215" y="172" width="59" height="30" as="geometry" />
        </mxCell>
        <mxCell id="-61vD2QeUWn7u2ZX0hGo-86" value="&lt;font style=&quot;font-size: 10px;&quot;&gt;USD&lt;/font&gt;" style="strokeWidth=1;html=1;shadow=0;dashed=0;shape=mxgraph.ios.iComboBox;spacingTop=2;spacingLeft=2;align=left;strokeColor=#444444;fontColor=#666666;buttonText=;fontSize=10;fillColor=#dddddd;fillColor2=#3D5565;sketch=0;whiteSpace=wrap;" parent="-61vD2QeUWn7u2ZX0hGo-72" vertex="1">
          <mxGeometry x="280.5" y="174" width="65" height="22" as="geometry" />
        </mxCell>
        <mxCell id="-61vD2QeUWn7u2ZX0hGo-87" value="&lt;font color=&quot;#7d7d7d&quot;&gt;MM/DD/YYYY&lt;/font&gt;" style="rounded=1;whiteSpace=wrap;html=1;align=center;" parent="-61vD2QeUWn7u2ZX0hGo-72" vertex="1">
          <mxGeometry x="254.5" y="146" width="91" height="20" as="geometry" />
        </mxCell>
        <mxCell id="-61vD2QeUWn7u2ZX0hGo-88" value="to" style="text;html=1;strokeColor=none;fillColor=none;align=center;verticalAlign=middle;whiteSpace=wrap;rounded=0;" parent="-61vD2QeUWn7u2ZX0hGo-72" vertex="1">
          <mxGeometry x="209" y="142" width="40" height="30" as="geometry" />
        </mxCell>
        <mxCell id="-61vD2QeUWn7u2ZX0hGo-101" value="&lt;font style=&quot;font-size: 15px;&quot;&gt;*&lt;/font&gt;" style="text;html=1;strokeColor=none;fillColor=none;align=center;verticalAlign=middle;whiteSpace=wrap;rounded=0;fontColor=#d00b0b;" parent="-61vD2QeUWn7u2ZX0hGo-72" vertex="1">
          <mxGeometry x="200" y="107" width="30" height="20" as="geometry" />
        </mxCell>
        <mxCell id="-61vD2QeUWn7u2ZX0hGo-102" value="&lt;font style=&quot;font-size: 15px;&quot;&gt;*&lt;/font&gt;" style="text;html=1;strokeColor=none;fillColor=none;align=center;verticalAlign=middle;whiteSpace=wrap;rounded=0;fontColor=#d00b0b;" parent="-61vD2QeUWn7u2ZX0hGo-72" vertex="1">
          <mxGeometry x="335" y="100" width="30" height="20" as="geometry" />
        </mxCell>
        <mxCell id="-61vD2QeUWn7u2ZX0hGo-103" value="Status:" style="text;html=1;strokeColor=none;fillColor=none;align=right;verticalAlign=middle;whiteSpace=wrap;rounded=0;" parent="-61vD2QeUWn7u2ZX0hGo-72" vertex="1">
          <mxGeometry y="249" width="100" height="30" as="geometry" />
        </mxCell>
        <mxCell id="-61vD2QeUWn7u2ZX0hGo-106" value="" style="rounded=1;whiteSpace=wrap;html=1;align=center;fillColor=#f5f5f5;fontColor=#333333;strokeColor=#666666;" parent="-61vD2QeUWn7u2ZX0hGo-72" vertex="1">
          <mxGeometry x="109" y="255" width="101" height="20" as="geometry" />
        </mxCell>
        <mxCell id="-61vD2QeUWn7u2ZX0hGo-107" value="Search" style="rounded=1;html=1;shadow=0;dashed=0;whiteSpace=wrap;fontSize=10;fillColor=#666666;align=center;strokeColor=#4D4D4D;fontColor=#ffffff;" parent="-61vD2QeUWn7u2ZX0hGo-72" vertex="1">
          <mxGeometry x="265.5" y="249" width="80" height="30" as="geometry" />
        </mxCell>
        <mxCell id="-61vD2QeUWn7u2ZX0hGo-108" value="Bank" style="html=1;fillColor=none;strokeColor=none;fontSize=11;align=left;fontColor=#3384FF;fontStyle=1;whiteSpace=wrap" parent="-61vD2QeUWn7u2ZX0hGo-72" vertex="1">
          <mxGeometry x="6" y="300" width="50" height="20" as="geometry" />
        </mxCell>
        <mxCell id="-61vD2QeUWn7u2ZX0hGo-109" value="Amount" style="html=1;fillColor=none;strokeColor=none;fontSize=11;align=left;fontColor=#596780;fontStyle=1;whiteSpace=wrap" parent="-61vD2QeUWn7u2ZX0hGo-72" vertex="1">
          <mxGeometry x="60" y="301" width="40" height="20" as="geometry" />
        </mxCell>
        <mxCell id="-61vD2QeUWn7u2ZX0hGo-110" value="Date" style="html=1;fillColor=none;strokeColor=none;fontSize=11;align=left;fontColor=#596780;fontStyle=1;whiteSpace=wrap" parent="-61vD2QeUWn7u2ZX0hGo-72" vertex="1">
          <mxGeometry x="119" y="301" width="60" height="20" as="geometry" />
        </mxCell>
        <mxCell id="-61vD2QeUWn7u2ZX0hGo-111" value="Currency" style="html=1;fillColor=none;strokeColor=none;fontSize=11;align=left;fontColor=#596780;fontStyle=1;whiteSpace=wrap" parent="-61vD2QeUWn7u2ZX0hGo-72" vertex="1">
          <mxGeometry x="159" y="301" width="61" height="20" as="geometry" />
        </mxCell>
        <mxCell id="-61vD2QeUWn7u2ZX0hGo-112" value="" style="shape=line;strokeWidth=2;html=1;strokeColor=#5938b2;resizeWidth=1" parent="-61vD2QeUWn7u2ZX0hGo-72" vertex="1">
          <mxGeometry x="6" y="320" width="350" height="10" as="geometry" />
        </mxCell>
        <mxCell id="-61vD2QeUWn7u2ZX0hGo-113" value="" style="shape=line;strokeWidth=2;html=1;strokeColor=#3384FF;resizeWidth=1" parent="-61vD2QeUWn7u2ZX0hGo-72" vertex="1">
          <mxGeometry x="6" y="320" width="40" height="10" as="geometry" />
        </mxCell>
        <mxCell id="-61vD2QeUWn7u2ZX0hGo-114" value="Kind of Payment" style="html=1;fillColor=none;strokeColor=none;fontSize=11;align=left;fontColor=#596780;fontStyle=1;whiteSpace=wrap" parent="-61vD2QeUWn7u2ZX0hGo-72" vertex="1">
          <mxGeometry x="220" y="301" width="90" height="20" as="geometry" />
        </mxCell>
        <mxCell id="-61vD2QeUWn7u2ZX0hGo-132" value="" style="shape=image;html=1;verticalAlign=top;verticalLabelPosition=bottom;labelBackgroundColor=#ffffff;imageAspect=0;aspect=fixed;image=https://cdn3.iconfinder.com/data/icons/document-icons-2/30/647702-excel-128.png;fontSize=10;" parent="-61vD2QeUWn7u2ZX0hGo-72" vertex="1">
          <mxGeometry x="323" y="301" width="15" height="15" as="geometry" />
        </mxCell>
        <mxCell id="-61vD2QeUWn7u2ZX0hGo-133" value="" style="swimlane;startSize=0;" parent="1" vertex="1">
          <mxGeometry x="41" y="870" width="365" height="390" as="geometry" />
        </mxCell>
        <mxCell id="-61vD2QeUWn7u2ZX0hGo-135" value="&lt;b&gt;POLICY&lt;/b&gt;" style="text;html=1;strokeColor=none;fillColor=none;align=center;verticalAlign=middle;whiteSpace=wrap;rounded=0;" parent="-61vD2QeUWn7u2ZX0hGo-133" vertex="1">
          <mxGeometry x="10" y="88" width="340" height="30" as="geometry" />
        </mxCell>
        <mxCell id="-61vD2QeUWn7u2ZX0hGo-136" value="Policy ID:" style="text;html=1;strokeColor=none;fillColor=none;align=right;verticalAlign=middle;whiteSpace=wrap;rounded=0;" parent="-61vD2QeUWn7u2ZX0hGo-133" vertex="1">
          <mxGeometry x="35" y="118" width="60" height="30" as="geometry" />
        </mxCell>
        <mxCell id="-61vD2QeUWn7u2ZX0hGo-137" value="Date:" style="text;html=1;strokeColor=none;fillColor=none;align=right;verticalAlign=middle;whiteSpace=wrap;rounded=0;" parent="-61vD2QeUWn7u2ZX0hGo-133" vertex="1">
          <mxGeometry x="190" y="118" width="49" height="30" as="geometry" />
        </mxCell>
        <mxCell id="-61vD2QeUWn7u2ZX0hGo-153" value="DD/MM/YYYY" style="text;html=1;strokeColor=none;fillColor=none;align=center;verticalAlign=middle;whiteSpace=wrap;rounded=0;" parent="-61vD2QeUWn7u2ZX0hGo-133" vertex="1">
          <mxGeometry x="249" y="118" width="81" height="30" as="geometry" />
        </mxCell>
        <mxCell id="-61vD2QeUWn7u2ZX0hGo-154" value="ID_PO_001" style="text;html=1;strokeColor=none;fillColor=none;align=center;verticalAlign=middle;whiteSpace=wrap;rounded=0;" parent="-61vD2QeUWn7u2ZX0hGo-133" vertex="1">
          <mxGeometry x="95" y="118" width="75" height="30" as="geometry" />
        </mxCell>
        <mxCell id="-61vD2QeUWn7u2ZX0hGo-156" value="Assets" style="childLayout=tableLayout;recursiveResize=0;strokeColor=#98bf21;fillColor=#A7C942;shadow=1;" parent="-61vD2QeUWn7u2ZX0hGo-133" vertex="1">
          <mxGeometry x="10" y="168" width="340" height="160" as="geometry" />
        </mxCell>
        <mxCell id="-61vD2QeUWn7u2ZX0hGo-157" style="shape=tableRow;horizontal=0;startSize=0;swimlaneHead=0;swimlaneBody=0;top=0;left=0;bottom=0;right=0;dropTarget=0;collapsible=0;recursiveResize=0;expand=0;fontStyle=0;strokeColor=inherit;fillColor=#ffffff;" parent="-61vD2QeUWn7u2ZX0hGo-156" vertex="1">
          <mxGeometry width="340" height="33" as="geometry" />
        </mxCell>
        <mxCell id="-61vD2QeUWn7u2ZX0hGo-158" value="&lt;font style=&quot;font-size: 10px; font-weight: normal;&quot;&gt;Banking &lt;br&gt;account&lt;/font&gt;" style="connectable=0;recursiveResize=0;strokeColor=inherit;fillColor=#A7C942;align=center;fontStyle=1;fontColor=#FFFFFF;html=1;" parent="-61vD2QeUWn7u2ZX0hGo-157" vertex="1">
          <mxGeometry width="68" height="33" as="geometry">
            <mxRectangle width="68" height="33" as="alternateBounds" />
          </mxGeometry>
        </mxCell>
        <mxCell id="-61vD2QeUWn7u2ZX0hGo-159" value="&lt;font style=&quot;font-size: 10px; font-weight: normal;&quot;&gt;subaccount&lt;/font&gt;" style="connectable=0;recursiveResize=0;strokeColor=inherit;fillColor=#A7C942;align=center;fontStyle=1;fontColor=#FFFFFF;html=1;" parent="-61vD2QeUWn7u2ZX0hGo-157" vertex="1">
          <mxGeometry x="68" width="68" height="33" as="geometry">
            <mxRectangle width="68" height="33" as="alternateBounds" />
          </mxGeometry>
        </mxCell>
        <mxCell id="-61vD2QeUWn7u2ZX0hGo-160" value="&lt;font style=&quot;font-size: 10px;&quot;&gt;Bank&lt;/font&gt;" style="connectable=0;recursiveResize=0;strokeColor=inherit;fillColor=#A7C942;align=center;fontStyle=1;fontColor=#FFFFFF;html=1;" parent="-61vD2QeUWn7u2ZX0hGo-157" vertex="1">
          <mxGeometry x="136" width="68" height="33" as="geometry">
            <mxRectangle width="68" height="33" as="alternateBounds" />
          </mxGeometry>
        </mxCell>
        <mxCell id="-61vD2QeUWn7u2ZX0hGo-181" value="&lt;font style=&quot;font-size: 10px; font-weight: normal;&quot;&gt;Debit&lt;/font&gt;" style="connectable=0;recursiveResize=0;strokeColor=inherit;fillColor=#A7C942;align=center;fontStyle=1;fontColor=#FFFFFF;html=1;" parent="-61vD2QeUWn7u2ZX0hGo-157" vertex="1">
          <mxGeometry x="204" width="68" height="33" as="geometry">
            <mxRectangle width="68" height="33" as="alternateBounds" />
          </mxGeometry>
        </mxCell>
        <mxCell id="-61vD2QeUWn7u2ZX0hGo-186" value="&lt;font style=&quot;font-size: 10px; font-weight: normal;&quot;&gt;Credit&lt;/font&gt;" style="connectable=0;recursiveResize=0;strokeColor=inherit;fillColor=#A7C942;align=center;fontStyle=1;fontColor=#FFFFFF;html=1;" parent="-61vD2QeUWn7u2ZX0hGo-157" vertex="1">
          <mxGeometry x="272" width="68" height="33" as="geometry">
            <mxRectangle width="68" height="33" as="alternateBounds" />
          </mxGeometry>
        </mxCell>
        <mxCell id="-61vD2QeUWn7u2ZX0hGo-161" value="" style="shape=tableRow;horizontal=0;startSize=0;swimlaneHead=0;swimlaneBody=0;top=0;left=0;bottom=0;right=0;dropTarget=0;collapsible=0;recursiveResize=0;expand=0;fontStyle=0;strokeColor=inherit;fillColor=#ffffff;" parent="-61vD2QeUWn7u2ZX0hGo-156" vertex="1">
          <mxGeometry y="33" width="340" height="32" as="geometry" />
        </mxCell>
        <mxCell id="-61vD2QeUWn7u2ZX0hGo-162" value="001-0022" style="connectable=0;recursiveResize=0;strokeColor=inherit;fillColor=inherit;align=center;whiteSpace=wrap;html=1;" parent="-61vD2QeUWn7u2ZX0hGo-161" vertex="1">
          <mxGeometry width="68" height="32" as="geometry">
            <mxRectangle width="68" height="32" as="alternateBounds" />
          </mxGeometry>
        </mxCell>
        <mxCell id="-61vD2QeUWn7u2ZX0hGo-163" value="001-0021" style="connectable=0;recursiveResize=0;strokeColor=inherit;fillColor=inherit;align=center;whiteSpace=wrap;html=1;" parent="-61vD2QeUWn7u2ZX0hGo-161" vertex="1">
          <mxGeometry x="68" width="68" height="32" as="geometry">
            <mxRectangle width="68" height="32" as="alternateBounds" />
          </mxGeometry>
        </mxCell>
        <mxCell id="-61vD2QeUWn7u2ZX0hGo-164" value="BBVA" style="connectable=0;recursiveResize=0;strokeColor=inherit;fillColor=inherit;align=center;whiteSpace=wrap;html=1;" parent="-61vD2QeUWn7u2ZX0hGo-161" vertex="1">
          <mxGeometry x="136" width="68" height="32" as="geometry">
            <mxRectangle width="68" height="32" as="alternateBounds" />
          </mxGeometry>
        </mxCell>
        <mxCell id="-61vD2QeUWn7u2ZX0hGo-182" value="50,000" style="connectable=0;recursiveResize=0;strokeColor=inherit;fillColor=inherit;align=center;whiteSpace=wrap;html=1;" parent="-61vD2QeUWn7u2ZX0hGo-161" vertex="1">
          <mxGeometry x="204" width="68" height="32" as="geometry">
            <mxRectangle width="68" height="32" as="alternateBounds" />
          </mxGeometry>
        </mxCell>
        <mxCell id="-61vD2QeUWn7u2ZX0hGo-187" style="connectable=0;recursiveResize=0;strokeColor=inherit;fillColor=inherit;align=center;whiteSpace=wrap;html=1;" parent="-61vD2QeUWn7u2ZX0hGo-161" vertex="1">
          <mxGeometry x="272" width="68" height="32" as="geometry">
            <mxRectangle width="68" height="32" as="alternateBounds" />
          </mxGeometry>
        </mxCell>
        <mxCell id="-61vD2QeUWn7u2ZX0hGo-165" value="" style="shape=tableRow;horizontal=0;startSize=0;swimlaneHead=0;swimlaneBody=0;top=0;left=0;bottom=0;right=0;dropTarget=0;collapsible=0;recursiveResize=0;expand=0;fontStyle=1;strokeColor=inherit;fillColor=#EAF2D3;" parent="-61vD2QeUWn7u2ZX0hGo-156" vertex="1">
          <mxGeometry y="65" width="340" height="31" as="geometry" />
        </mxCell>
        <mxCell id="-61vD2QeUWn7u2ZX0hGo-166" value="" style="connectable=0;recursiveResize=0;strokeColor=inherit;fillColor=inherit;whiteSpace=wrap;html=1;" parent="-61vD2QeUWn7u2ZX0hGo-165" vertex="1">
          <mxGeometry width="68" height="31" as="geometry">
            <mxRectangle width="68" height="31" as="alternateBounds" />
          </mxGeometry>
        </mxCell>
        <mxCell id="-61vD2QeUWn7u2ZX0hGo-167" value="" style="connectable=0;recursiveResize=0;strokeColor=inherit;fillColor=inherit;whiteSpace=wrap;html=1;" parent="-61vD2QeUWn7u2ZX0hGo-165" vertex="1">
          <mxGeometry x="68" width="68" height="31" as="geometry">
            <mxRectangle width="68" height="31" as="alternateBounds" />
          </mxGeometry>
        </mxCell>
        <mxCell id="-61vD2QeUWn7u2ZX0hGo-168" value="" style="connectable=0;recursiveResize=0;strokeColor=inherit;fillColor=inherit;whiteSpace=wrap;html=1;" parent="-61vD2QeUWn7u2ZX0hGo-165" vertex="1">
          <mxGeometry x="136" width="68" height="31" as="geometry">
            <mxRectangle width="68" height="31" as="alternateBounds" />
          </mxGeometry>
        </mxCell>
        <mxCell id="-61vD2QeUWn7u2ZX0hGo-183" style="connectable=0;recursiveResize=0;strokeColor=inherit;fillColor=inherit;whiteSpace=wrap;html=1;" parent="-61vD2QeUWn7u2ZX0hGo-165" vertex="1">
          <mxGeometry x="204" width="68" height="31" as="geometry">
            <mxRectangle width="68" height="31" as="alternateBounds" />
          </mxGeometry>
        </mxCell>
        <mxCell id="-61vD2QeUWn7u2ZX0hGo-188" style="connectable=0;recursiveResize=0;strokeColor=inherit;fillColor=inherit;whiteSpace=wrap;html=1;" parent="-61vD2QeUWn7u2ZX0hGo-165" vertex="1">
          <mxGeometry x="272" width="68" height="31" as="geometry">
            <mxRectangle width="68" height="31" as="alternateBounds" />
          </mxGeometry>
        </mxCell>
        <mxCell id="-61vD2QeUWn7u2ZX0hGo-169" value="" style="shape=tableRow;horizontal=0;startSize=0;swimlaneHead=0;swimlaneBody=0;top=0;left=0;bottom=0;right=0;dropTarget=0;collapsible=0;recursiveResize=0;expand=0;fontStyle=0;strokeColor=inherit;fillColor=#ffffff;" parent="-61vD2QeUWn7u2ZX0hGo-156" vertex="1">
          <mxGeometry y="96" width="340" height="33" as="geometry" />
        </mxCell>
        <mxCell id="-61vD2QeUWn7u2ZX0hGo-170" value="" style="connectable=0;recursiveResize=0;strokeColor=inherit;fillColor=inherit;fontStyle=0;align=center;whiteSpace=wrap;html=1;" parent="-61vD2QeUWn7u2ZX0hGo-169" vertex="1">
          <mxGeometry width="68" height="33" as="geometry">
            <mxRectangle width="68" height="33" as="alternateBounds" />
          </mxGeometry>
        </mxCell>
        <mxCell id="-61vD2QeUWn7u2ZX0hGo-171" value="" style="connectable=0;recursiveResize=0;strokeColor=inherit;fillColor=inherit;fontStyle=0;align=center;whiteSpace=wrap;html=1;" parent="-61vD2QeUWn7u2ZX0hGo-169" vertex="1">
          <mxGeometry x="68" width="68" height="33" as="geometry">
            <mxRectangle width="68" height="33" as="alternateBounds" />
          </mxGeometry>
        </mxCell>
        <mxCell id="-61vD2QeUWn7u2ZX0hGo-172" value="" style="connectable=0;recursiveResize=0;strokeColor=inherit;fillColor=inherit;fontStyle=0;align=center;whiteSpace=wrap;html=1;" parent="-61vD2QeUWn7u2ZX0hGo-169" vertex="1">
          <mxGeometry x="136" width="68" height="33" as="geometry">
            <mxRectangle width="68" height="33" as="alternateBounds" />
          </mxGeometry>
        </mxCell>
        <mxCell id="-61vD2QeUWn7u2ZX0hGo-184" style="connectable=0;recursiveResize=0;strokeColor=inherit;fillColor=inherit;fontStyle=0;align=center;whiteSpace=wrap;html=1;" parent="-61vD2QeUWn7u2ZX0hGo-169" vertex="1">
          <mxGeometry x="204" width="68" height="33" as="geometry">
            <mxRectangle width="68" height="33" as="alternateBounds" />
          </mxGeometry>
        </mxCell>
        <mxCell id="-61vD2QeUWn7u2ZX0hGo-189" style="connectable=0;recursiveResize=0;strokeColor=inherit;fillColor=inherit;fontStyle=0;align=center;whiteSpace=wrap;html=1;" parent="-61vD2QeUWn7u2ZX0hGo-169" vertex="1">
          <mxGeometry x="272" width="68" height="33" as="geometry">
            <mxRectangle width="68" height="33" as="alternateBounds" />
          </mxGeometry>
        </mxCell>
        <mxCell id="-61vD2QeUWn7u2ZX0hGo-173" value="" style="shape=tableRow;horizontal=0;startSize=0;swimlaneHead=0;swimlaneBody=0;top=0;left=0;bottom=0;right=0;dropTarget=0;collapsible=0;recursiveResize=0;expand=0;fontStyle=1;strokeColor=inherit;fillColor=#EAF2D3;" parent="-61vD2QeUWn7u2ZX0hGo-156" vertex="1">
          <mxGeometry y="129" width="340" height="31" as="geometry" />
        </mxCell>
        <mxCell id="-61vD2QeUWn7u2ZX0hGo-174" value="" style="connectable=0;recursiveResize=0;strokeColor=inherit;fillColor=inherit;whiteSpace=wrap;html=1;" parent="-61vD2QeUWn7u2ZX0hGo-173" vertex="1">
          <mxGeometry width="68" height="31" as="geometry">
            <mxRectangle width="68" height="31" as="alternateBounds" />
          </mxGeometry>
        </mxCell>
        <mxCell id="-61vD2QeUWn7u2ZX0hGo-175" value="" style="connectable=0;recursiveResize=0;strokeColor=inherit;fillColor=inherit;whiteSpace=wrap;html=1;" parent="-61vD2QeUWn7u2ZX0hGo-173" vertex="1">
          <mxGeometry x="68" width="68" height="31" as="geometry">
            <mxRectangle width="68" height="31" as="alternateBounds" />
          </mxGeometry>
        </mxCell>
        <mxCell id="-61vD2QeUWn7u2ZX0hGo-176" value="" style="connectable=0;recursiveResize=0;strokeColor=inherit;fillColor=inherit;whiteSpace=wrap;html=1;" parent="-61vD2QeUWn7u2ZX0hGo-173" vertex="1">
          <mxGeometry x="136" width="68" height="31" as="geometry">
            <mxRectangle width="68" height="31" as="alternateBounds" />
          </mxGeometry>
        </mxCell>
        <mxCell id="-61vD2QeUWn7u2ZX0hGo-185" style="connectable=0;recursiveResize=0;strokeColor=inherit;fillColor=inherit;whiteSpace=wrap;html=1;" parent="-61vD2QeUWn7u2ZX0hGo-173" vertex="1">
          <mxGeometry x="204" width="68" height="31" as="geometry">
            <mxRectangle width="68" height="31" as="alternateBounds" />
          </mxGeometry>
        </mxCell>
        <mxCell id="-61vD2QeUWn7u2ZX0hGo-190" style="connectable=0;recursiveResize=0;strokeColor=inherit;fillColor=inherit;whiteSpace=wrap;html=1;" parent="-61vD2QeUWn7u2ZX0hGo-173" vertex="1">
          <mxGeometry x="272" width="68" height="31" as="geometry">
            <mxRectangle width="68" height="31" as="alternateBounds" />
          </mxGeometry>
        </mxCell>
        <mxCell id="-61vD2QeUWn7u2ZX0hGo-196" value="Incomes" style="html=1;shadow=0;dashed=0;fillColor=#343A40;strokeColor=none;fontSize=16;fontColor=#ffffff;align=left;spacing=15;" parent="-61vD2QeUWn7u2ZX0hGo-133" vertex="1">
          <mxGeometry x="-0.5" width="366" height="60" as="geometry" />
        </mxCell>
        <mxCell id="-61vD2QeUWn7u2ZX0hGo-197" value="Home" style="fillColor=none;strokeColor=none;fontSize=14;fontColor=#ffffff;align=center;" parent="-61vD2QeUWn7u2ZX0hGo-196" vertex="1">
          <mxGeometry width="70" height="40" relative="1" as="geometry">
            <mxPoint x="70" y="10" as="offset" />
          </mxGeometry>
        </mxCell>
        <mxCell id="-61vD2QeUWn7u2ZX0hGo-198" value="Incomes" style="fillColor=none;strokeColor=none;fontSize=14;fontColor=#9A9DA0;align=center;" parent="-61vD2QeUWn7u2ZX0hGo-196" vertex="1">
          <mxGeometry width="70" height="40" relative="1" as="geometry">
            <mxPoint x="140" y="10" as="offset" />
          </mxGeometry>
        </mxCell>
        <mxCell id="-61vD2QeUWn7u2ZX0hGo-199" value="Status" style="fillColor=none;strokeColor=none;fontSize=14;fontColor=#9A9DA0;align=center;spacingRight=0;" parent="-61vD2QeUWn7u2ZX0hGo-196" vertex="1">
          <mxGeometry width="80" height="40" relative="1" as="geometry">
            <mxPoint x="210" y="10" as="offset" />
          </mxGeometry>
        </mxCell>
        <mxCell id="-61vD2QeUWn7u2ZX0hGo-200" value="Policy" style="fillColor=none;strokeColor=none;fontSize=14;fontColor=#9A9DA0;align=center;" parent="-61vD2QeUWn7u2ZX0hGo-196" vertex="1">
          <mxGeometry width="80" height="40" relative="1" as="geometry">
            <mxPoint x="285" y="10" as="offset" />
          </mxGeometry>
        </mxCell>
        <mxCell id="-61vD2QeUWn7u2ZX0hGo-63" value="Are you sure to income this payment?" style="rounded=1;arcSize=9;align=left;spacingLeft=5;strokeColor=#FFAB00;html=1;strokeWidth=2;fontSize=12" parent="1" vertex="1">
          <mxGeometry x="930" y="123" width="300" height="90" as="geometry" />
        </mxCell>
        <mxCell id="-61vD2QeUWn7u2ZX0hGo-64" value="" style="shape=mxgraph.azure.azure_alert;fillColor=#FFAB00;strokeColor=none;html=1;sketch=0;" parent="-61vD2QeUWn7u2ZX0hGo-63" vertex="1">
          <mxGeometry x="1" y="0.5" width="20" height="20" relative="1" as="geometry">
            <mxPoint x="-30" y="-10" as="offset" />
          </mxGeometry>
        </mxCell>
        <mxCell id="-61vD2QeUWn7u2ZX0hGo-65" value="Yes" style="rounded=1;html=1;shadow=0;dashed=0;whiteSpace=wrap;fontSize=10;fillColor=#666666;align=center;strokeColor=#4D4D4D;fontColor=#ffffff;" parent="-61vD2QeUWn7u2ZX0hGo-63" vertex="1">
          <mxGeometry x="10" y="63" width="115.5" height="16.88" as="geometry" />
        </mxCell>
        <mxCell id="-61vD2QeUWn7u2ZX0hGo-69" value="No" style="rounded=1;html=1;shadow=0;dashed=0;whiteSpace=wrap;fontSize=10;fillColor=#666666;align=center;strokeColor=#4D4D4D;fontColor=#ffffff;" parent="-61vD2QeUWn7u2ZX0hGo-63" vertex="1">
          <mxGeometry x="140" y="63" width="105.5" height="16.88" as="geometry" />
        </mxCell>
        <mxCell id="-61vD2QeUWn7u2ZX0hGo-194" value="" style="edgeStyle=orthogonalEdgeStyle;rounded=0;orthogonalLoop=1;jettySize=auto;html=1;entryX=1;entryY=0.5;entryDx=0;entryDy=0;" parent="1" source="-61vD2QeUWn7u2ZX0hGo-192" target="BAFdUwqjaFJr0z-FGz0u-1" edge="1">
          <mxGeometry relative="1" as="geometry" />
        </mxCell>
        <mxCell id="-61vD2QeUWn7u2ZX0hGo-195" value="" style="edgeStyle=orthogonalEdgeStyle;rounded=0;orthogonalLoop=1;jettySize=auto;html=1;entryX=0;entryY=0.5;entryDx=0;entryDy=0;" parent="1" source="-61vD2QeUWn7u2ZX0hGo-192" target="-61vD2QeUWn7u2ZX0hGo-63" edge="1">
          <mxGeometry relative="1" as="geometry" />
        </mxCell>
        <mxCell id="-61vD2QeUWn7u2ZX0hGo-192" value="" style="rhombus;whiteSpace=wrap;html=1;" parent="1" vertex="1">
          <mxGeometry x="860" y="146" width="50" height="44" as="geometry" />
        </mxCell>
        <mxCell id="-61vD2QeUWn7u2ZX0hGo-204" value="Logo" style="html=1;shadow=0;dashed=0;fillColor=#343A40;strokeColor=none;fontSize=16;fontColor=#ffffff;align=left;spacing=15;" parent="1" vertex="1">
          <mxGeometry x="40" y="430" width="366" height="60" as="geometry" />
        </mxCell>
        <mxCell id="-61vD2QeUWn7u2ZX0hGo-205" value="Home" style="fillColor=none;strokeColor=none;fontSize=14;fontColor=#ffffff;align=center;" parent="-61vD2QeUWn7u2ZX0hGo-204" vertex="1">
          <mxGeometry width="70" height="40" relative="1" as="geometry">
            <mxPoint x="70" y="10" as="offset" />
          </mxGeometry>
        </mxCell>
        <mxCell id="-61vD2QeUWn7u2ZX0hGo-206" value="Incomes" style="fillColor=none;strokeColor=none;fontSize=14;fontColor=#9A9DA0;align=center;" parent="-61vD2QeUWn7u2ZX0hGo-204" vertex="1">
          <mxGeometry width="70" height="40" relative="1" as="geometry">
            <mxPoint x="140" y="10" as="offset" />
          </mxGeometry>
        </mxCell>
        <mxCell id="-61vD2QeUWn7u2ZX0hGo-207" value="Status" style="fillColor=none;strokeColor=none;fontSize=14;fontColor=#9A9DA0;align=center;spacingRight=0;" parent="-61vD2QeUWn7u2ZX0hGo-204" vertex="1">
          <mxGeometry width="80" height="40" relative="1" as="geometry">
            <mxPoint x="210" y="10" as="offset" />
          </mxGeometry>
        </mxCell>
        <mxCell id="-61vD2QeUWn7u2ZX0hGo-208" value="Policy" style="fillColor=none;strokeColor=none;fontSize=14;fontColor=#9A9DA0;align=center;" parent="-61vD2QeUWn7u2ZX0hGo-204" vertex="1">
          <mxGeometry width="80" height="40" relative="1" as="geometry">
            <mxPoint x="285" y="10" as="offset" />
          </mxGeometry>
        </mxCell>
        <mxCell id="-61vD2QeUWn7u2ZX0hGo-215" value="Logo" style="html=1;shadow=0;dashed=0;fillColor=#343A40;strokeColor=none;fontSize=16;fontColor=#ffffff;align=left;spacing=15;" parent="1" vertex="1">
          <mxGeometry x="425" y="430" width="366" height="60" as="geometry" />
        </mxCell>
        <mxCell id="-61vD2QeUWn7u2ZX0hGo-216" value="Home" style="fillColor=none;strokeColor=none;fontSize=14;fontColor=#ffffff;align=center;" parent="-61vD2QeUWn7u2ZX0hGo-215" vertex="1">
          <mxGeometry width="70" height="40" relative="1" as="geometry">
            <mxPoint x="70" y="10" as="offset" />
          </mxGeometry>
        </mxCell>
        <mxCell id="-61vD2QeUWn7u2ZX0hGo-217" value="Incomes" style="fillColor=none;strokeColor=none;fontSize=14;fontColor=#9A9DA0;align=center;" parent="-61vD2QeUWn7u2ZX0hGo-215" vertex="1">
          <mxGeometry width="70" height="40" relative="1" as="geometry">
            <mxPoint x="140" y="10" as="offset" />
          </mxGeometry>
        </mxCell>
        <mxCell id="-61vD2QeUWn7u2ZX0hGo-218" value="Status" style="fillColor=none;strokeColor=none;fontSize=14;fontColor=#9A9DA0;align=center;spacingRight=0;" parent="-61vD2QeUWn7u2ZX0hGo-215" vertex="1">
          <mxGeometry width="80" height="40" relative="1" as="geometry">
            <mxPoint x="210" y="10" as="offset" />
          </mxGeometry>
        </mxCell>
        <mxCell id="-61vD2QeUWn7u2ZX0hGo-219" value="Policy" style="fillColor=none;strokeColor=none;fontSize=14;fontColor=#9A9DA0;align=center;" parent="-61vD2QeUWn7u2ZX0hGo-215" vertex="1">
          <mxGeometry width="80" height="40" relative="1" as="geometry">
            <mxPoint x="285" y="10" as="offset" />
          </mxGeometry>
        </mxCell>
      </root>
    </mxGraphModel>
  </diagram>
</mxfile>
